<svg width="259" height="114" viewBox="0 0 259 114" fill="none" xmlns="http://www.w3.org/2000/svg">
<path d="M61.9825 48.768C52.1905 48.768 45.7265 42.496 45.7265 33.024H53.8545C53.8545 38.336 56.9905 41.472 62.1745 41.472C67.6785 41.472 71.1985 37.888 71.1985 32.192C71.1985 26.752 67.9345 23.04 62.3025 23.04C58.7185 23.04 55.4545 24.832 53.7905 27.264L46.5585 25.728L52.3185 1.216H76.7025V8.768H58.2065L55.7105 18.496C57.9505 17.024 60.7665 16.192 63.9665 16.192C73.3105 16.192 79.5185 22.528 79.5185 31.744C79.5185 41.856 72.4145 48.768 61.9825 48.768ZM84.8695 24.704C84.8695 10.176 92.6775 0.319996 104.646 0.319996C116.614 0.319996 124.486 10.176 124.486 24.704C124.486 39.168 117.062 48.832 104.646 48.832C92.2295 48.832 84.8695 39.168 84.8695 24.704ZM92.9335 24.704C92.9335 35.52 97.2855 41.6 104.646 41.6C112.07 41.6 116.422 35.52 116.422 24.704C116.422 13.632 112.07 7.552 104.646 7.552C97.2855 7.552 92.9335 13.632 92.9335 24.704ZM130.634 24.704C130.634 10.176 138.443 0.319996 150.411 0.319996C162.379 0.319996 170.251 10.176 170.251 24.704C170.251 39.168 162.826 48.832 150.411 48.832C137.995 48.832 130.634 39.168 130.634 24.704ZM138.699 24.704C138.699 35.52 143.051 41.6 150.411 41.6C157.835 41.6 162.187 35.52 162.187 24.704C162.187 13.632 157.835 7.552 150.411 7.552C143.051 7.552 138.699 13.632 138.699 24.704ZM178.767 23.168H191.503V10.432H198.031V23.168H210.767V29.696H198.031V42.496H191.503V29.696H178.767V23.168Z" fill="white"/>
<path d="M42.7716 84H39.5796L45.9156 66.456H49.0596L55.3956 84H52.1556L50.7396 79.944H44.1876L42.7716 84ZM47.0916 71.688L45.0996 77.352H49.8516L47.8356 71.688C47.6916 71.232 47.5236 70.704 47.4756 70.344C47.4036 70.68 47.2596 71.208 47.0916 71.688ZM64.3844 84.288C59.2724 84.288 55.9604 80.736 55.9604 75.24C55.9604 69.792 59.3924 66.168 64.5284 66.168C68.6804 66.168 71.7764 68.592 72.3764 72.36H69.1364C68.5364 70.32 66.7844 69.12 64.4564 69.12C61.2164 69.12 59.1764 71.472 59.1764 75.216C59.1764 78.936 61.2404 81.336 64.4564 81.336C66.8324 81.336 68.6564 80.088 69.2324 78.144H72.4244C71.7524 81.84 68.5364 84.288 64.3844 84.288ZM82.8353 84.288C77.7233 84.288 74.4113 80.736 74.4113 75.24C74.4113 69.792 77.8433 66.168 82.9793 66.168C87.1313 66.168 90.2273 68.592 90.8273 72.36H87.5873C86.9873 70.32 85.2353 69.12 82.9073 69.12C79.6673 69.12 77.6273 71.472 77.6273 75.216C77.6273 78.936 79.6913 81.336 82.9073 81.336C85.2833 81.336 87.1073 80.088 87.6833 78.144H90.8753C90.2033 81.84 86.9873 84.288 82.8353 84.288ZM109.878 75.216C109.878 80.544 106.374 84.288 101.334 84.288C96.3183 84.288 92.8623 80.568 92.8623 75.216C92.8623 69.888 96.3423 66.144 101.358 66.144C106.374 66.144 109.878 69.864 109.878 75.216ZM106.638 75.216C106.638 71.472 104.574 69.096 101.358 69.096C98.1423 69.096 96.0783 71.472 96.0783 75.216C96.0783 78.96 98.1423 81.336 101.358 81.336C104.574 81.336 106.638 78.912 106.638 75.216ZM112.857 77.592V66.456H115.929V77.4C115.929 79.92 117.297 81.312 119.793 81.312C122.289 81.312 123.681 79.896 123.681 77.4V66.456H126.753V77.592C126.753 81.696 124.065 84.288 119.793 84.288C115.545 84.288 112.857 81.72 112.857 77.592ZM133.796 84H130.772V66.456H133.82L142.052 78.888V66.456H145.076V84H142.052L133.796 71.568V84ZM147.664 69.288V66.456H161.008V69.288H155.872V84H152.8V69.288H147.664ZM163.538 84H160.346L166.682 66.456H169.826L176.162 84H172.922L171.506 79.944H164.954L163.538 84ZM167.858 71.688L165.866 77.352H170.618L168.602 71.688C168.458 71.232 168.29 70.704 168.242 70.344C168.17 70.68 168.026 71.208 167.858 71.688ZM181.626 84H178.602V66.456H181.65L189.882 78.888V66.456H192.906V84H189.882L181.626 71.568V84ZM195.493 69.288V66.456H208.837V69.288H203.701V84H200.629V69.288H195.493ZM210.417 71.352C210.417 68.28 212.961 66.144 216.657 66.144C220.209 66.144 222.465 68.112 222.561 71.28H219.489C219.417 69.768 218.337 68.88 216.609 68.88C214.713 68.88 213.489 69.792 213.489 71.256C213.489 72.504 214.161 73.2 215.625 73.536L218.385 74.136C221.385 74.784 222.849 76.32 222.849 78.936C222.849 82.2 220.305 84.312 216.441 84.312C212.697 84.312 210.249 82.32 210.177 79.176H213.249C213.273 80.664 214.473 81.552 216.441 81.552C218.481 81.552 219.777 80.664 219.777 79.2C219.777 78.024 219.177 77.328 217.737 77.016L214.953 76.392C211.977 75.744 210.417 74.04 210.417 71.352Z" fill="white"/>
<path d="M38.3635 99.986V113H36.5995V99.986H38.3635ZM42.9824 113H41.2904V104.198H42.8204L43.0004 105.548C43.5584 104.54 44.6744 103.946 45.9164 103.946C48.2384 103.946 49.3004 105.368 49.3004 107.618V113H47.6084V107.996C47.6084 106.214 46.7804 105.494 45.4844 105.494C43.9004 105.494 42.9824 106.628 42.9824 108.338V113ZM68.9498 106.484C68.9498 110.444 66.3578 113.216 62.6678 113.216C58.9958 113.216 56.4398 110.444 56.4398 106.484C56.4398 102.542 59.0138 99.752 62.6858 99.752C66.3758 99.752 68.9498 102.524 68.9498 106.484ZM67.0958 106.484C67.0958 103.46 65.3318 101.462 62.6858 101.462C60.0398 101.462 58.2938 103.46 58.2938 106.484C58.2938 109.508 60.0398 111.524 62.6858 111.524C65.3318 111.524 67.0958 109.49 67.0958 106.484ZM77.1819 104.198H78.8559V113H77.3439L77.1639 111.668C76.6599 112.586 75.4899 113.216 74.1939 113.216C72.1419 113.216 70.9899 111.83 70.9899 109.67V104.198H72.6819V109.112C72.6819 111.002 73.4919 111.722 74.7879 111.722C76.3359 111.722 77.1819 110.732 77.1819 108.842V104.198ZM86.5308 104.126V105.674H85.7748C84.1728 105.674 83.1828 106.646 83.1828 108.338V113H81.4908V104.216H83.0748L83.1828 105.548C83.5428 104.63 84.4248 104.018 85.6308 104.018C85.9368 104.018 86.1888 104.054 86.5308 104.126ZM92.4277 101.606V99.986H102.022V101.606H98.1157V113H96.3517V101.606H92.4277ZM104.837 113.216C102.947 113.216 101.831 112.154 101.831 110.552C101.831 108.932 103.037 107.924 105.107 107.762L107.879 107.546V107.294C107.879 105.818 106.997 105.296 105.809 105.296C104.387 105.296 103.577 105.926 103.577 106.988H102.101C102.101 105.152 103.613 103.946 105.881 103.946C108.059 103.946 109.535 105.098 109.535 107.474V113H108.095L107.915 111.578C107.465 112.586 106.259 113.216 104.837 113.216ZM105.323 111.902C106.925 111.902 107.897 110.858 107.897 109.202V108.734L105.647 108.914C104.153 109.058 103.541 109.634 103.541 110.498C103.541 111.434 104.225 111.902 105.323 111.902ZM113.786 113H112.094V99.752H113.786V113ZM120.255 113.216C117.663 113.216 115.881 111.344 115.881 108.608C115.881 105.854 117.627 103.946 120.183 103.946C122.685 103.946 124.323 105.674 124.323 108.284V108.914L117.519 108.932C117.645 110.786 118.617 111.812 120.291 111.812C121.605 111.812 122.469 111.272 122.757 110.264H124.341C123.909 112.154 122.433 113.216 120.255 113.216ZM120.183 105.368C118.707 105.368 117.771 106.25 117.555 107.798H122.631C122.631 106.34 121.677 105.368 120.183 105.368ZM128.085 113H126.393V104.198H127.923L128.103 105.548C128.661 104.54 129.777 103.946 131.019 103.946C133.341 103.946 134.403 105.368 134.403 107.618V113H132.711V107.996C132.711 106.214 131.883 105.494 130.587 105.494C129.003 105.494 128.085 106.628 128.085 108.338V113ZM139.411 113H137.719V105.62H135.991V104.198H137.719V101.444H139.411V104.198H141.139V105.62H139.411V113ZM152.529 113H148.227V99.986H152.457C156.345 99.986 158.973 102.614 158.973 106.502C158.973 110.372 156.381 113 152.529 113ZM152.331 101.606H149.991V111.362H152.403C155.301 111.362 157.137 109.49 157.137 106.502C157.137 103.478 155.301 101.606 152.331 101.606ZM163.683 113.216C161.793 113.216 160.677 112.154 160.677 110.552C160.677 108.932 161.883 107.924 163.953 107.762L166.725 107.546V107.294C166.725 105.818 165.843 105.296 164.655 105.296C163.233 105.296 162.423 105.926 162.423 106.988H160.947C160.947 105.152 162.459 103.946 164.727 103.946C166.905 103.946 168.381 105.098 168.381 107.474V113H166.941L166.761 111.578C166.311 112.586 165.105 113.216 163.683 113.216ZM164.169 111.902C165.771 111.902 166.743 110.858 166.743 109.202V108.734L164.493 108.914C162.999 109.058 162.387 109.634 162.387 110.498C162.387 111.434 163.071 111.902 164.169 111.902ZM173.248 113H171.556V105.62H169.828V104.198H171.556V101.444H173.248V104.198H174.976V105.62H173.248V113ZM179.143 113.216C177.253 113.216 176.137 112.154 176.137 110.552C176.137 108.932 177.343 107.924 179.413 107.762L182.185 107.546V107.294C182.185 105.818 181.303 105.296 180.115 105.296C178.693 105.296 177.883 105.926 177.883 106.988H176.407C176.407 105.152 177.919 103.946 180.187 103.946C182.365 103.946 183.841 105.098 183.841 107.474V113H182.401L182.221 111.578C181.771 112.586 180.565 113.216 179.143 113.216ZM179.629 111.902C181.231 111.902 182.203 110.858 182.203 109.202V108.734L179.953 108.914C178.459 109.058 177.847 109.634 177.847 110.498C177.847 111.434 178.531 111.902 179.629 111.902ZM187.894 113H186.364V99.752H188.056V105.71C188.632 104.558 189.82 103.946 191.26 103.946C193.78 103.946 195.292 105.926 195.292 108.644C195.292 111.308 193.708 113.216 191.152 113.216C189.766 113.216 188.596 112.604 188.02 111.398L187.894 113ZM188.074 108.572C188.074 110.408 189.118 111.686 190.846 111.686C192.574 111.686 193.6 110.39 193.6 108.572C193.6 106.772 192.574 105.476 190.846 105.476C189.118 105.476 188.074 106.772 188.074 108.572ZM199.911 113.216C198.021 113.216 196.905 112.154 196.905 110.552C196.905 108.932 198.111 107.924 200.181 107.762L202.953 107.546V107.294C202.953 105.818 202.071 105.296 200.883 105.296C199.461 105.296 198.651 105.926 198.651 106.988H197.175C197.175 105.152 198.687 103.946 200.955 103.946C203.133 103.946 204.609 105.098 204.609 107.474V113H203.169L202.989 111.578C202.539 112.586 201.333 113.216 199.911 113.216ZM200.397 111.902C201.999 111.902 202.971 110.858 202.971 109.202V108.734L200.721 108.914C199.227 109.058 198.615 109.634 198.615 110.498C198.615 111.434 199.299 111.902 200.397 111.902ZM206.412 110.444H208.032C208.032 111.344 208.716 111.884 209.832 111.884C211.02 111.884 211.704 111.398 211.704 110.588C211.704 109.994 211.416 109.634 210.498 109.4L208.95 109.04C207.384 108.662 206.646 107.888 206.646 106.592C206.646 104.972 208.014 103.946 209.958 103.946C211.884 103.946 213.144 105.026 213.18 106.7H211.56C211.524 105.818 210.93 105.26 209.904 105.26C208.842 105.26 208.248 105.728 208.248 106.538C208.248 107.132 208.68 107.528 209.544 107.744L211.092 108.122C212.586 108.482 213.324 109.166 213.324 110.48C213.324 112.154 211.884 113.216 209.796 113.216C207.726 113.216 206.412 112.118 206.412 110.444ZM219.179 113.216C216.587 113.216 214.805 111.344 214.805 108.608C214.805 105.854 216.551 103.946 219.107 103.946C221.609 103.946 223.247 105.674 223.247 108.284V108.914L216.443 108.932C216.569 110.786 217.541 111.812 219.215 111.812C220.529 111.812 221.393 111.272 221.681 110.264H223.265C222.833 112.154 221.357 113.216 219.179 113.216ZM219.107 105.368C217.631 105.368 216.695 106.25 216.479 107.798H221.555C221.555 106.34 220.601 105.368 219.107 105.368Z" fill="white"/>
</svg>
