<svg width="307" height="118" viewBox="0 0 307 118" fill="none" xmlns="http://www.w3.org/2000/svg">
<path d="M85.956 8.576H75.716V1.216H93.828V48H85.956V8.576ZM102.432 24.704C102.432 10.176 110.24 0.319996 122.208 0.319996C134.176 0.319996 142.048 10.176 142.048 24.704C142.048 39.168 134.624 48.832 122.208 48.832C109.792 48.832 102.432 39.168 102.432 24.704ZM110.496 24.704C110.496 35.52 114.848 41.6 122.208 41.6C129.632 41.6 133.984 35.52 133.984 24.704C133.984 13.632 129.632 7.552 122.208 7.552C114.848 7.552 110.496 13.632 110.496 24.704ZM148.197 24.704C148.197 10.176 156.005 0.319996 167.973 0.319996C179.941 0.319996 187.813 10.176 187.813 24.704C187.813 39.168 180.389 48.832 167.973 48.832C155.557 48.832 148.197 39.168 148.197 24.704ZM156.261 24.704C156.261 35.52 160.613 41.6 167.973 41.6C175.397 41.6 179.749 35.52 179.749 24.704C179.749 13.632 175.397 7.552 167.973 7.552C160.613 7.552 156.261 13.632 156.261 24.704ZM196.33 23.168H209.066V10.432H215.594V23.168H228.33V29.696H215.594V42.496H209.066V29.696H196.33V23.168Z" fill="white"/>
<path d="M113.71 88.288C108.598 88.288 105.286 84.736 105.286 79.24C105.286 73.792 108.718 70.168 113.854 70.168C118.006 70.168 121.102 72.592 121.702 76.36H118.462C117.862 74.32 116.11 73.12 113.782 73.12C110.542 73.12 108.502 75.472 108.502 79.216C108.502 82.936 110.566 85.336 113.782 85.336C116.158 85.336 117.982 84.088 118.558 82.144H121.75C121.078 85.84 117.862 88.288 113.71 88.288ZM127.817 70.456V85.168H135.161V88H124.745V70.456H127.817ZM140.971 70.456V88H137.899V70.456H140.971ZM155.996 88H145.1V70.456H155.996V73.288H148.172V77.8H155.18V80.512H148.172V85.168H155.996V88ZM162.591 88H159.567V70.456H162.615L170.847 82.888V70.456H173.871V88H170.847L162.591 75.568V88ZM176.458 73.288V70.456H189.802V73.288H184.666V88H181.594V73.288H176.458ZM191.383 75.352C191.383 72.28 193.927 70.144 197.623 70.144C201.175 70.144 203.431 72.112 203.527 75.28H200.455C200.383 73.768 199.303 72.88 197.575 72.88C195.679 72.88 194.455 73.792 194.455 75.256C194.455 76.504 195.127 77.2 196.591 77.536L199.351 78.136C202.351 78.784 203.815 80.32 203.815 82.936C203.815 86.2 201.271 88.312 197.407 88.312C193.663 88.312 191.215 86.32 191.143 83.176H194.215C194.239 84.664 195.439 85.552 197.407 85.552C199.447 85.552 200.743 84.664 200.743 83.2C200.743 82.024 200.143 81.328 198.703 81.016L195.919 80.392C192.943 79.744 191.383 78.04 191.383 75.352Z" fill="white"/>
<path d="M45.1507 107.496C45.1507 105.264 46.9507 103.752 49.6327 103.752C52.1167 103.752 53.7187 105.138 53.8627 107.388H52.0807C51.9907 106.092 51.0727 105.336 49.6147 105.336C47.9767 105.336 46.9147 106.164 46.9147 107.442C46.9147 108.486 47.5087 109.116 48.7327 109.404L50.8747 109.908C52.9987 110.394 54.0787 111.546 54.0787 113.382C54.0787 115.722 52.2607 117.216 49.4887 117.216C46.8427 117.216 45.0787 115.83 44.9707 113.598H46.7707C46.8067 114.84 47.8507 115.632 49.4887 115.632C51.2167 115.632 52.3147 114.822 52.3147 113.526C52.3147 112.5 51.7567 111.852 50.5147 111.564L48.3727 111.078C46.2487 110.592 45.1507 109.368 45.1507 107.496ZM59.9854 117.216C57.3934 117.216 55.6114 115.344 55.6114 112.608C55.6114 109.854 57.3574 107.946 59.9134 107.946C62.4154 107.946 64.0534 109.674 64.0534 112.284V112.914L57.2494 112.932C57.3754 114.786 58.3474 115.812 60.0214 115.812C61.3354 115.812 62.1994 115.272 62.4874 114.264H64.0714C63.6394 116.154 62.1634 117.216 59.9854 117.216ZM59.9134 109.368C58.4374 109.368 57.5014 110.25 57.2854 111.798H62.3614C62.3614 110.34 61.4074 109.368 59.9134 109.368ZM71.1632 108.126V109.674H70.4072C68.8052 109.674 67.8152 110.646 67.8152 112.338V117H66.1232V108.216H67.7072L67.8152 109.548C68.1752 108.63 69.0572 108.018 70.2632 108.018C70.5692 108.018 70.8212 108.054 71.1632 108.126ZM75.6598 117L72.1138 108.198H73.9138L75.8398 113.112C76.1458 113.94 76.3978 114.678 76.5418 115.218C76.6858 114.642 76.9738 113.886 77.2798 113.112L79.2418 108.198H81.0058L77.3338 117H75.6598ZM85.9257 117.216C83.3337 117.216 81.5517 115.344 81.5517 112.608C81.5517 109.854 83.2977 107.946 85.8537 107.946C88.3557 107.946 89.9937 109.674 89.9937 112.284V112.914L83.1897 112.932C83.3157 114.786 84.2877 115.812 85.9617 115.812C87.2757 115.812 88.1397 115.272 88.4277 114.264H90.0117C89.5797 116.154 88.1037 117.216 85.9257 117.216ZM85.8537 109.368C84.3777 109.368 83.4417 110.25 83.2257 111.798H88.3017C88.3017 110.34 87.3477 109.368 85.8537 109.368ZM95.5916 117.216C93.0356 117.216 91.4876 115.308 91.4876 112.626C91.4876 109.926 93.0536 107.946 95.6636 107.946C97.0136 107.946 98.1476 108.54 98.7416 109.62V103.752H100.416V117H98.9036L98.7596 115.398C98.1836 116.604 96.9956 117.216 95.5916 117.216ZM95.9336 115.686C97.6616 115.686 98.7236 114.408 98.7236 112.572C98.7236 110.772 97.6616 109.476 95.9336 109.476C94.2056 109.476 93.1976 110.772 93.1976 112.572C93.1976 114.39 94.2056 115.686 95.9336 115.686ZM108.966 117H107.13L111.882 103.986H113.844L118.614 117H116.76L115.59 113.76H110.118L108.966 117ZM112.638 106.794L110.658 112.23H115.068L113.07 106.794C112.98 106.542 112.89 106.236 112.854 106.038C112.818 106.218 112.728 106.524 112.638 106.794ZM119.326 112.608C119.326 109.854 121.072 107.946 123.646 107.946C125.86 107.946 127.408 109.206 127.714 111.168H126.022C125.734 110.052 124.834 109.458 123.7 109.458C122.098 109.458 121 110.682 121 112.59C121 114.48 122.026 115.704 123.628 115.704C124.834 115.704 125.734 115.074 126.04 114.03H127.732C127.39 115.938 125.752 117.216 123.628 117.216C121.036 117.216 119.326 115.38 119.326 112.608ZM134.738 108.126V109.674H133.982C132.38 109.674 131.39 110.646 131.39 112.338V117H129.698V108.216H131.282L131.39 109.548C131.75 108.63 132.632 108.018 133.838 108.018C134.144 108.018 134.396 108.054 134.738 108.126ZM135.612 112.59C135.612 109.872 137.556 107.964 140.202 107.964C142.83 107.964 144.774 109.872 144.774 112.59C144.774 115.308 142.83 117.216 140.202 117.216C137.556 117.216 135.612 115.308 135.612 112.59ZM137.322 112.59C137.322 114.426 138.492 115.704 140.202 115.704C141.894 115.704 143.082 114.426 143.082 112.59C143.082 110.754 141.894 109.476 140.202 109.476C138.492 109.476 137.322 110.754 137.322 112.59ZM146.107 114.444H147.727C147.727 115.344 148.411 115.884 149.527 115.884C150.715 115.884 151.399 115.398 151.399 114.588C151.399 113.994 151.111 113.634 150.193 113.4L148.645 113.04C147.079 112.662 146.341 111.888 146.341 110.592C146.341 108.972 147.709 107.946 149.653 107.946C151.579 107.946 152.839 109.026 152.875 110.7H151.255C151.219 109.818 150.625 109.26 149.599 109.26C148.537 109.26 147.943 109.728 147.943 110.538C147.943 111.132 148.375 111.528 149.239 111.744L150.787 112.122C152.281 112.482 153.019 113.166 153.019 114.48C153.019 116.154 151.579 117.216 149.491 117.216C147.421 117.216 146.107 116.118 146.107 114.444ZM154.356 114.444H155.976C155.976 115.344 156.66 115.884 157.776 115.884C158.964 115.884 159.648 115.398 159.648 114.588C159.648 113.994 159.36 113.634 158.442 113.4L156.894 113.04C155.328 112.662 154.59 111.888 154.59 110.592C154.59 108.972 155.958 107.946 157.902 107.946C159.828 107.946 161.088 109.026 161.124 110.7H159.504C159.468 109.818 158.874 109.26 157.848 109.26C156.786 109.26 156.192 109.728 156.192 110.538C156.192 111.132 156.624 111.528 157.488 111.744L159.036 112.122C160.53 112.482 161.268 113.166 161.268 114.48C161.268 116.154 159.828 117.216 157.74 117.216C155.67 117.216 154.356 116.118 154.356 114.444ZM168.048 113.382C168.048 111.816 168.966 110.556 170.406 110.034C169.182 109.512 168.516 108.486 168.516 107.172C168.516 105.138 170.262 103.752 172.854 103.752C175.41 103.752 177.138 105.138 177.138 107.19C177.138 108.522 176.454 109.548 175.23 110.034C176.688 110.502 177.624 111.798 177.624 113.4C177.624 115.686 175.716 117.216 172.836 117.216C169.938 117.216 168.048 115.686 168.048 113.382ZM170.136 107.28C170.136 108.558 171.198 109.386 172.818 109.386C174.456 109.386 175.482 108.576 175.482 107.316C175.482 106.074 174.456 105.282 172.818 105.282C171.198 105.282 170.136 106.074 170.136 107.28ZM169.776 113.256C169.776 114.714 170.982 115.65 172.836 115.65C174.672 115.65 175.878 114.714 175.878 113.256C175.878 111.816 174.69 110.898 172.818 110.898C170.964 110.898 169.776 111.816 169.776 113.256ZM187.01 103.986V115.362H192.734V117H185.246V103.986H187.01ZM193.79 112.59C193.79 109.872 195.734 107.964 198.38 107.964C201.008 107.964 202.952 109.872 202.952 112.59C202.952 115.308 201.008 117.216 198.38 117.216C195.734 117.216 193.79 115.308 193.79 112.59ZM195.5 112.59C195.5 114.426 196.67 115.704 198.38 115.704C200.072 115.704 201.26 114.426 201.26 112.59C201.26 110.754 200.072 109.476 198.38 109.476C196.67 109.476 195.5 110.754 195.5 112.59ZM204.429 112.608C204.429 109.854 206.175 107.946 208.749 107.946C210.963 107.946 212.511 109.206 212.817 111.168H211.125C210.837 110.052 209.937 109.458 208.803 109.458C207.201 109.458 206.103 110.682 206.103 112.59C206.103 114.48 207.129 115.704 208.731 115.704C209.937 115.704 210.837 115.074 211.143 114.03H212.835C212.493 115.938 210.855 117.216 208.731 117.216C206.139 117.216 204.429 115.38 204.429 112.608ZM217.374 117.216C215.484 117.216 214.368 116.154 214.368 114.552C214.368 112.932 215.574 111.924 217.644 111.762L220.416 111.546V111.294C220.416 109.818 219.534 109.296 218.346 109.296C216.924 109.296 216.114 109.926 216.114 110.988H214.638C214.638 109.152 216.15 107.946 218.418 107.946C220.596 107.946 222.072 109.098 222.072 111.474V117H220.632L220.452 115.578C220.002 116.586 218.796 117.216 217.374 117.216ZM217.86 115.902C219.462 115.902 220.434 114.858 220.434 113.202V112.734L218.184 112.914C216.69 113.058 216.078 113.634 216.078 114.498C216.078 115.434 216.762 115.902 217.86 115.902ZM226.939 117H225.247V109.62H223.519V108.198H225.247V105.444H226.939V108.198H228.667V109.62H226.939V117ZM231.193 106.11C230.581 106.11 230.077 105.606 230.077 104.994C230.077 104.364 230.581 103.878 231.193 103.878C231.805 103.878 232.309 104.364 232.309 104.994C232.309 105.606 231.805 106.11 231.193 106.11ZM230.365 117V108.198H232.057V117H230.365ZM234.118 112.59C234.118 109.872 236.062 107.964 238.708 107.964C241.336 107.964 243.28 109.872 243.28 112.59C243.28 115.308 241.336 117.216 238.708 117.216C236.062 117.216 234.118 115.308 234.118 112.59ZM235.828 112.59C235.828 114.426 236.998 115.704 238.708 115.704C240.4 115.704 241.588 114.426 241.588 112.59C241.588 110.754 240.4 109.476 238.708 109.476C236.998 109.476 235.828 110.754 235.828 112.59ZM247.025 117H245.333V108.198H246.863L247.043 109.548C247.601 108.54 248.717 107.946 249.959 107.946C252.281 107.946 253.343 109.368 253.343 111.618V117H251.651V111.996C251.651 110.214 250.823 109.494 249.527 109.494C247.943 109.494 247.025 110.628 247.025 112.338V117ZM255.041 114.444H256.661C256.661 115.344 257.345 115.884 258.461 115.884C259.649 115.884 260.333 115.398 260.333 114.588C260.333 113.994 260.045 113.634 259.127 113.4L257.579 113.04C256.013 112.662 255.275 111.888 255.275 110.592C255.275 108.972 256.643 107.946 258.587 107.946C260.513 107.946 261.773 109.026 261.809 110.7H260.189C260.153 109.818 259.559 109.26 258.533 109.26C257.471 109.26 256.877 109.728 256.877 110.538C256.877 111.132 257.309 111.528 258.173 111.744L259.721 112.122C261.215 112.482 261.953 113.166 261.953 114.48C261.953 116.154 260.513 117.216 258.425 117.216C256.355 117.216 255.041 116.118 255.041 114.444Z" fill="white"/>
</svg>
