<svg width="231" height="118" viewBox="0 0 231 118" fill="none" xmlns="http://www.w3.org/2000/svg">
<path d="M70.365 48.768C60.573 48.768 54.109 42.496 54.109 33.024H62.237C62.237 38.336 65.373 41.472 70.557 41.472C76.061 41.472 79.581 37.888 79.581 32.192C79.581 26.752 76.317 23.04 70.685 23.04C67.101 23.04 63.837 24.832 62.173 27.264L54.941 25.728L60.701 1.216H85.085V8.768H66.589L64.093 18.496C66.333 17.024 69.149 16.192 72.349 16.192C81.693 16.192 87.901 22.528 87.901 31.744C87.901 41.856 80.797 48.768 70.365 48.768ZM93.252 24.704C93.252 10.176 101.06 0.319996 113.028 0.319996C124.996 0.319996 132.868 10.176 132.868 24.704C132.868 39.168 125.444 48.832 113.028 48.832C100.612 48.832 93.252 39.168 93.252 24.704ZM101.316 24.704C101.316 35.52 105.668 41.6 113.028 41.6C120.452 41.6 124.804 35.52 124.804 24.704C124.804 13.632 120.452 7.552 113.028 7.552C105.668 7.552 101.316 13.632 101.316 24.704ZM141.385 23.168H154.121V10.432H160.649V23.168H173.385V29.696H160.649V42.496H154.121V29.696H141.385V23.168Z" fill="white"/>
<path d="M59.0697 87H48.4857V69.648H59.0697V71.808H50.8377V77.232H58.2537V79.32H50.8377V84.816H59.0697V87ZM65.0219 87H62.7179V69.648H65.0219L70.9979 84.24L76.9739 69.648H79.3259V87H77.0219V80.136C77.0219 76.896 77.0459 75.72 77.1659 74.496L72.1019 87H69.8939L64.8539 74.544C64.9739 75.384 65.0219 77.16 65.0219 79.584V87ZM90.3503 80.808H85.9583V87H83.6063V69.648H90.3503C93.7583 69.648 95.9423 71.88 95.9423 75.216C95.9423 78.456 93.7343 80.808 90.3503 80.808ZM89.9423 71.76H85.9583V78.696H89.8463C92.1743 78.696 93.4703 77.328 93.4703 75.192C93.4703 73.008 92.1503 71.76 89.9423 71.76ZM101.198 69.648V84.816H108.83V87H98.8463V69.648H101.198ZM126.43 78.312C126.43 83.592 122.974 87.288 118.054 87.288C113.158 87.288 109.75 83.592 109.75 78.312C109.75 73.056 113.182 69.336 118.078 69.336C122.998 69.336 126.43 73.032 126.43 78.312ZM123.958 78.312C123.958 74.28 121.606 71.616 118.078 71.616C114.55 71.616 112.222 74.28 112.222 78.312C112.222 82.344 114.55 85.032 118.078 85.032C121.606 85.032 123.958 82.32 123.958 78.312ZM132.54 79.944L126.66 69.648H129.3L133.164 76.584C133.404 76.992 133.548 77.328 133.74 77.736C133.956 77.304 134.004 77.16 134.316 76.584L138.156 69.648H140.724L134.892 79.944V87H132.54V79.944ZM153.814 87H143.23V69.648H153.814V71.808H145.582V77.232H152.998V79.32H145.582V84.816H153.814V87ZM168.047 87H157.463V69.648H168.047V71.808H159.815V77.232H167.231V79.32H159.815V84.816H168.047V87ZM170.687 74.328C170.687 71.352 173.087 69.336 176.663 69.336C179.975 69.336 182.111 71.184 182.303 74.184H179.927C179.807 72.456 178.583 71.448 176.639 71.448C174.455 71.448 173.039 72.552 173.039 74.256C173.039 75.648 173.831 76.488 175.463 76.872L178.319 77.544C181.151 78.192 182.591 79.728 182.591 82.176C182.591 85.296 180.167 87.288 176.471 87.288C172.943 87.288 170.591 85.44 170.447 82.464H172.847C172.895 84.12 174.287 85.176 176.471 85.176C178.775 85.176 180.239 84.096 180.239 82.368C180.239 81 179.495 80.136 177.839 79.752L174.983 79.104C172.151 78.456 170.687 76.824 170.687 74.328Z" fill="white"/>
<path d="M3.46596 104.496C3.46596 102.264 5.26596 100.752 7.94796 100.752C10.432 100.752 12.034 102.138 12.178 104.388H10.396C10.306 103.092 9.38796 102.336 7.92996 102.336C6.29196 102.336 5.22996 103.164 5.22996 104.442C5.22996 105.486 5.82396 106.116 7.04796 106.404L9.18996 106.908C11.314 107.394 12.394 108.546 12.394 110.382C12.394 112.722 10.576 114.216 7.80396 114.216C5.15796 114.216 3.39396 112.83 3.28596 110.598H5.08596C5.12196 111.84 6.16596 112.632 7.80396 112.632C9.53196 112.632 10.63 111.822 10.63 110.526C10.63 109.5 10.072 108.852 8.82996 108.564L6.68796 108.078C4.56396 107.592 3.46596 106.368 3.46596 104.496ZM14.5026 117.942V105.198H16.0326L16.1586 106.782C16.7526 105.576 17.9406 104.946 19.3446 104.946C21.8646 104.946 23.4306 106.836 23.4306 109.536C23.4306 112.218 21.9546 114.234 19.3446 114.234C17.9406 114.234 16.7706 113.64 16.1946 112.56V117.942H14.5026ZM16.2126 109.608C16.2126 111.408 17.2566 112.704 18.9846 112.704C20.7126 112.704 21.7386 111.408 21.7386 109.608C21.7386 107.79 20.7126 106.494 18.9846 106.494C17.2566 106.494 16.2126 107.772 16.2126 109.608ZM30.5156 105.126V106.674H29.7596C28.1576 106.674 27.1676 107.646 27.1676 109.338V114H25.4756V105.216H27.0596L27.1676 106.548C27.5276 105.63 28.4096 105.018 29.6156 105.018C29.9216 105.018 30.1736 105.054 30.5156 105.126ZM35.7641 114.216C33.1721 114.216 31.3901 112.344 31.3901 109.608C31.3901 106.854 33.1361 104.946 35.6921 104.946C38.1941 104.946 39.8321 106.674 39.8321 109.284V109.914L33.0281 109.932C33.1541 111.786 34.1261 112.812 35.8001 112.812C37.1141 112.812 37.9781 112.272 38.2661 111.264H39.8502C39.4181 113.154 37.9421 114.216 35.7641 114.216ZM35.6921 106.368C34.2161 106.368 33.2801 107.25 33.0641 108.798H38.1401C38.1401 107.34 37.1861 106.368 35.6921 106.368ZM44.3881 114.216C42.4981 114.216 41.3821 113.154 41.3821 111.552C41.3821 109.932 42.5881 108.924 44.6581 108.762L47.4301 108.546V108.294C47.4301 106.818 46.5481 106.296 45.3601 106.296C43.9381 106.296 43.1281 106.926 43.1281 107.988H41.6521C41.6521 106.152 43.1641 104.946 45.4321 104.946C47.6101 104.946 49.0861 106.098 49.0861 108.474V114H47.6461L47.4661 112.578C47.0161 113.586 45.8101 114.216 44.3881 114.216ZM44.8741 112.902C46.4761 112.902 47.4481 111.858 47.4481 110.202V109.734L45.1981 109.914C43.7041 110.058 43.0921 110.634 43.0921 111.498C43.0921 112.434 43.7761 112.902 44.8741 112.902ZM55.1374 114.216C52.5814 114.216 51.0334 112.308 51.0334 109.626C51.0334 106.926 52.5994 104.946 55.2094 104.946C56.5594 104.946 57.6934 105.54 58.2874 106.62V100.752H59.9614V114H58.4494L58.3054 112.398C57.7294 113.604 56.5414 114.216 55.1374 114.216ZM55.4794 112.686C57.2074 112.686 58.2694 111.408 58.2694 109.572C58.2694 107.772 57.2074 106.476 55.4794 106.476C53.7514 106.476 52.7434 107.772 52.7434 109.572C52.7434 111.39 53.7514 112.686 55.4794 112.686ZM68.5122 114H66.6762L71.4282 100.986H73.3902L78.1602 114H76.3062L75.1362 110.76H69.6642L68.5122 114ZM72.1842 103.794L70.2042 109.23H74.6142L72.6162 103.794C72.5262 103.542 72.4362 103.236 72.4002 103.038C72.3642 103.218 72.2742 103.524 72.1842 103.794ZM78.8722 109.608C78.8722 106.854 80.6182 104.946 83.1922 104.946C85.4062 104.946 86.9542 106.206 87.2602 108.168H85.5682C85.2802 107.052 84.3802 106.458 83.2462 106.458C81.6442 106.458 80.5462 107.682 80.5462 109.59C80.5462 111.48 81.5722 112.704 83.1742 112.704C84.3802 112.704 85.2802 112.074 85.5862 111.03H87.2782C86.9362 112.938 85.2982 114.216 83.1742 114.216C80.5822 114.216 78.8722 112.38 78.8722 109.608ZM94.2834 105.126V106.674H93.5274C91.9254 106.674 90.9354 107.646 90.9354 109.338V114H89.2434V105.216H90.8274L90.9354 106.548C91.2954 105.63 92.1774 105.018 93.3834 105.018C93.6894 105.018 93.9414 105.054 94.2834 105.126ZM95.158 109.59C95.158 106.872 97.102 104.964 99.748 104.964C102.376 104.964 104.32 106.872 104.32 109.59C104.32 112.308 102.376 114.216 99.748 114.216C97.102 114.216 95.158 112.308 95.158 109.59ZM96.868 109.59C96.868 111.426 98.038 112.704 99.748 112.704C101.44 112.704 102.628 111.426 102.628 109.59C102.628 107.754 101.44 106.476 99.748 106.476C98.038 106.476 96.868 107.754 96.868 109.59ZM105.653 111.444H107.273C107.273 112.344 107.957 112.884 109.073 112.884C110.261 112.884 110.945 112.398 110.945 111.588C110.945 110.994 110.657 110.634 109.739 110.4L108.191 110.04C106.625 109.662 105.887 108.888 105.887 107.592C105.887 105.972 107.255 104.946 109.199 104.946C111.125 104.946 112.385 106.026 112.421 107.7H110.801C110.765 106.818 110.171 106.26 109.145 106.26C108.083 106.26 107.489 106.728 107.489 107.538C107.489 108.132 107.921 108.528 108.785 108.744L110.333 109.122C111.827 109.482 112.565 110.166 112.565 111.48C112.565 113.154 111.125 114.216 109.037 114.216C106.967 114.216 105.653 113.118 105.653 111.444ZM113.901 111.444H115.521C115.521 112.344 116.205 112.884 117.321 112.884C118.509 112.884 119.193 112.398 119.193 111.588C119.193 110.994 118.905 110.634 117.987 110.4L116.439 110.04C114.873 109.662 114.135 108.888 114.135 107.592C114.135 105.972 115.503 104.946 117.447 104.946C119.373 104.946 120.633 106.026 120.669 107.7H119.049C119.013 106.818 118.419 106.26 117.393 106.26C116.331 106.26 115.737 106.728 115.737 107.538C115.737 108.132 116.169 108.528 117.033 108.744L118.581 109.122C120.075 109.482 120.813 110.166 120.813 111.48C120.813 113.154 119.373 114.216 117.285 114.216C115.215 114.216 113.901 113.118 113.901 111.444ZM137.332 111.372H135.784V114H134.092V111.372H127.36V109.806L133.498 100.986H135.784V109.806H137.332V111.372ZM129.268 109.806H134.092V102.858L129.268 109.806ZM150.385 114.198C146.677 114.198 144.211 111.534 144.211 107.502C144.211 103.488 146.749 100.77 150.475 100.77C153.409 100.77 155.659 102.516 156.145 105.18H154.255C153.769 103.488 152.311 102.462 150.421 102.462C147.793 102.462 146.065 104.442 146.065 107.484C146.065 110.526 147.793 112.506 150.421 112.506C152.329 112.506 153.841 111.48 154.327 109.878H156.199C155.641 112.47 153.319 114.198 150.385 114.198ZM157.678 109.59C157.678 106.872 159.622 104.964 162.268 104.964C164.896 104.964 166.84 106.872 166.84 109.59C166.84 112.308 164.896 114.216 162.268 114.216C159.622 114.216 157.678 112.308 157.678 109.59ZM159.388 109.59C159.388 111.426 160.558 112.704 162.268 112.704C163.96 112.704 165.148 111.426 165.148 109.59C165.148 107.754 163.96 106.476 162.268 106.476C160.558 106.476 159.388 107.754 159.388 109.59ZM174.766 105.198H176.44V114H174.928L174.748 112.668C174.244 113.586 173.074 114.216 171.778 114.216C169.726 114.216 168.574 112.83 168.574 110.67V105.198H170.266V110.112C170.266 112.002 171.076 112.722 172.372 112.722C173.92 112.722 174.766 111.732 174.766 109.842V105.198ZM180.767 114H179.075V105.198H180.605L180.785 106.548C181.343 105.54 182.459 104.946 183.701 104.946C186.023 104.946 187.085 106.368 187.085 108.618V114H185.393V108.996C185.393 107.214 184.565 106.494 183.269 106.494C181.685 106.494 180.767 107.628 180.767 109.338V114ZM192.092 114H190.4V106.62H188.672V105.198H190.4V102.444H192.092V105.198H193.82V106.62H192.092V114ZM200.559 105.126V106.674H199.803C198.201 106.674 197.211 107.646 197.211 109.338V114H195.519V105.216H197.103L197.211 106.548C197.571 105.63 198.453 105.018 199.659 105.018C199.965 105.018 200.217 105.054 200.559 105.126ZM203.154 103.11C202.542 103.11 202.038 102.606 202.038 101.994C202.038 101.364 202.542 100.878 203.154 100.878C203.766 100.878 204.27 101.364 204.27 101.994C204.27 102.606 203.766 103.11 203.154 103.11ZM202.326 114V105.198H204.018V114H202.326ZM210.452 114.216C207.86 114.216 206.078 112.344 206.078 109.608C206.078 106.854 207.824 104.946 210.38 104.946C212.882 104.946 214.52 106.674 214.52 109.284V109.914L207.716 109.932C207.842 111.786 208.814 112.812 210.488 112.812C211.802 112.812 212.666 112.272 212.954 111.264H214.538C214.106 113.154 212.63 114.216 210.452 114.216ZM210.38 106.368C208.904 106.368 207.968 107.25 207.752 108.798H212.828C212.828 107.34 211.874 106.368 210.38 106.368ZM215.87 111.444H217.49C217.49 112.344 218.174 112.884 219.29 112.884C220.478 112.884 221.162 112.398 221.162 111.588C221.162 110.994 220.874 110.634 219.956 110.4L218.408 110.04C216.842 109.662 216.104 108.888 216.104 107.592C216.104 105.972 217.472 104.946 219.416 104.946C221.342 104.946 222.602 106.026 222.638 107.7H221.018C220.982 106.818 220.388 106.26 219.362 106.26C218.3 106.26 217.706 106.728 217.706 107.538C217.706 108.132 218.138 108.528 219.002 108.744L220.55 109.122C222.044 109.482 222.782 110.166 222.782 111.48C222.782 113.154 221.342 114.216 219.254 114.216C217.184 114.216 215.87 113.118 215.87 111.444Z" fill="white"/>
</svg>
