<svg width="317" height="225" viewBox="0 0 317 225" fill="none" xmlns="http://www.w3.org/2000/svg">
<path d="M74.7791 42.8L62.1391 60H50.4591L64.4591 41.36C63.0191 41.76 61.4991 42 60.0591 42C47.9791 42 39.8191 33.52 39.8191 21.68C39.8191 9.2 49.0991 0.479999 61.5791 0.479999C74.2191 0.479999 83.6591 9.76 83.6591 21.76C83.6591 28.8 81.3391 33.92 74.7791 42.8ZM73.1791 21.68C73.1791 14.56 68.4591 9.6 61.5791 9.6C54.8591 9.6 50.1391 14.56 50.1391 21.68C50.1391 28.72 54.8591 33.6 61.5791 33.6C68.5391 33.6 73.1791 28.72 73.1791 21.68ZM89.6147 43.44C89.6147 36.48 93.5347 30.88 99.6147 28.56C94.4947 26.24 91.6947 21.84 91.6947 16.16C91.6947 6.88 99.9347 0.479999 112.015 0.479999C124.015 0.479999 132.095 6.8 132.095 16.32C132.095 22 129.215 26.4 124.015 28.56C130.175 30.72 134.175 36.4 134.175 43.44C134.175 54 125.455 60.96 111.855 60.96C98.3347 60.96 89.6147 54.08 89.6147 43.44ZM100.975 17.04C100.975 21.92 105.215 25.04 111.855 25.04C118.415 25.04 122.575 22 122.575 17.12C122.575 12.24 118.415 9.2 111.855 9.2C105.215 9.2 100.975 12.24 100.975 17.04ZM99.6147 42.72C99.6147 48.4 104.335 51.92 111.935 51.92C119.375 51.92 124.095 48.4 124.095 42.72C124.095 37.04 119.375 33.52 111.855 33.52C104.335 33.52 99.6147 37.04 99.6147 42.72ZM149.436 60.96C145.916 60.96 142.956 58.08 142.956 54.64C142.956 51.12 145.916 48.24 149.436 48.24C152.956 48.24 155.916 51.12 155.916 54.64C155.916 58.08 152.956 60.96 149.436 60.96ZM160.055 1.52H202.055V10.96L180.855 60H170.215L191.815 10.96H160.055V1.52ZM236.622 15.76C236.622 24.8 230.222 31.12 221.342 31.12C212.462 31.12 206.062 24.8 206.062 15.76C206.062 6.8 212.462 0.399995 221.342 0.399995C230.222 0.399995 236.622 6.8 236.622 15.76ZM268.702 1.6L224.302 60H214.542L258.942 1.6H268.702ZM228.862 15.76C228.862 11.12 225.822 7.92 221.342 7.92C216.862 7.92 213.902 11.12 213.902 15.76C213.902 20.4 216.942 23.6 221.342 23.6C225.822 23.6 228.862 20.4 228.862 15.76ZM277.262 45.68C277.262 54.64 270.942 61.04 262.062 61.04C253.102 61.04 246.782 54.64 246.782 45.68C246.782 36.72 253.102 30.32 262.062 30.32C270.942 30.32 277.262 36.72 277.262 45.68ZM269.502 45.68C269.502 41.04 266.462 37.84 262.062 37.84C257.582 37.84 254.542 41.04 254.542 45.68C254.542 50.32 257.582 53.52 262.062 53.52C266.462 53.52 269.502 50.32 269.502 45.68Z" fill="white"/>
<path d="M125.498 122.432C117.83 122.432 112.862 117.104 112.862 108.86C112.862 100.688 118.01 95.252 125.714 95.252C131.942 95.252 136.586 98.888 137.486 104.54H132.626C131.726 101.48 129.098 99.68 125.606 99.68C120.746 99.68 117.686 103.208 117.686 108.824C117.686 114.404 120.782 118.004 125.606 118.004C129.17 118.004 131.906 116.132 132.77 113.216H137.558C136.55 118.76 131.726 122.432 125.498 122.432ZM140.538 103.028C140.538 98.42 144.354 95.216 149.898 95.216C155.226 95.216 158.61 98.168 158.754 102.92H154.146C154.038 100.652 152.418 99.32 149.826 99.32C146.982 99.32 145.146 100.688 145.146 102.884C145.146 104.756 146.154 105.8 148.35 106.304L152.49 107.204C156.99 108.176 159.186 110.48 159.186 114.404C159.186 119.3 155.37 122.468 149.574 122.468C143.958 122.468 140.286 119.48 140.178 114.764H144.786C144.822 116.996 146.622 118.328 149.574 118.328C152.634 118.328 154.578 116.996 154.578 114.8C154.578 113.036 153.678 111.992 151.518 111.524L147.342 110.588C142.878 109.616 140.538 107.06 140.538 103.028ZM165.983 122H161.195L170.699 95.684H175.415L184.919 122H180.059L177.935 115.916H168.107L165.983 122ZM172.463 103.532L169.475 112.028H176.603L173.579 103.532C173.363 102.848 173.111 102.056 173.039 101.516C172.931 102.02 172.715 102.812 172.463 103.532ZM183.92 99.932V95.684H203.936V99.932H196.232V122H191.624V99.932H183.92Z" fill="white"/>
<path d="M9.54142 175H5.86942L15.3734 148.972H19.2974L28.8374 175H25.1294L22.7894 168.52H11.8454L9.54142 175ZM16.8854 154.588L12.9254 165.46H21.7454L17.7494 154.588C17.5694 154.084 17.3894 153.472 17.3174 153.076C17.2454 153.436 17.0654 154.048 16.8854 154.588ZM30.2614 166.216C30.2614 160.708 33.7534 156.892 38.9014 156.892C43.3294 156.892 46.4254 159.412 47.0374 163.336H43.6534C43.0774 161.104 41.2774 159.916 39.0094 159.916C35.8054 159.916 33.6094 162.364 33.6094 166.18C33.6094 169.96 35.6614 172.408 38.8654 172.408C41.2774 172.408 43.0774 171.148 43.6894 169.06H47.0734C46.3894 172.876 43.1134 175.432 38.8654 175.432C33.6814 175.432 30.2614 171.76 30.2614 166.216ZM61.0839 157.252V160.348H59.5719C56.3679 160.348 54.3879 162.292 54.3879 165.676V175H51.0039V157.432H54.1719L54.3879 160.096C55.1079 158.26 56.8719 157.036 59.2839 157.036C59.8959 157.036 60.3999 157.108 61.0839 157.252ZM62.833 166.18C62.833 160.744 66.721 156.928 72.013 156.928C77.269 156.928 81.157 160.744 81.157 166.18C81.157 171.616 77.269 175.432 72.013 175.432C66.721 175.432 62.833 171.616 62.833 166.18ZM66.253 166.18C66.253 169.852 68.593 172.408 72.013 172.408C75.397 172.408 77.773 169.852 77.773 166.18C77.773 162.508 75.397 159.952 72.013 159.952C68.593 159.952 66.253 162.508 66.253 166.18ZM83.8229 169.888H87.0629C87.0629 171.688 88.4309 172.768 90.6629 172.768C93.0389 172.768 94.4069 171.796 94.4069 170.176C94.4069 168.988 93.8309 168.268 91.9949 167.8L88.8989 167.08C85.7669 166.324 84.2909 164.776 84.2909 162.184C84.2909 158.944 87.0269 156.892 90.9149 156.892C94.7669 156.892 97.2869 159.052 97.3589 162.4H94.1189C94.0469 160.636 92.8589 159.52 90.8069 159.52C88.6829 159.52 87.4949 160.456 87.4949 162.076C87.4949 163.264 88.3589 164.056 90.0869 164.488L93.1829 165.244C96.1709 165.964 97.6469 167.332 97.6469 169.96C97.6469 173.308 94.7669 175.432 90.5909 175.432C86.4509 175.432 83.8229 173.236 83.8229 169.888ZM100.32 169.888H103.56C103.56 171.688 104.928 172.768 107.16 172.768C109.536 172.768 110.904 171.796 110.904 170.176C110.904 168.988 110.328 168.268 108.492 167.8L105.396 167.08C102.264 166.324 100.788 164.776 100.788 162.184C100.788 158.944 103.524 156.892 107.412 156.892C111.264 156.892 113.784 159.052 113.856 162.4H110.616C110.544 160.636 109.356 159.52 107.304 159.52C105.18 159.52 103.992 160.456 103.992 162.076C103.992 163.264 104.856 164.056 106.584 164.488L109.68 165.244C112.668 165.964 114.144 167.332 114.144 169.96C114.144 173.308 111.264 175.432 107.088 175.432C102.948 175.432 100.32 173.236 100.32 169.888ZM130.116 175H126.444L135.948 148.972H139.872L149.412 175H145.704L143.364 168.52H132.42L130.116 175ZM137.46 154.588L133.5 165.46H142.32L138.324 154.588C138.144 154.084 137.964 153.472 137.892 153.076C137.82 153.436 137.64 154.048 137.46 154.588ZM156.112 175H152.728V148.504H156.112V175ZM164.91 175H161.526V148.504H164.91V175ZM191.147 165.712H184.559V175H181.031V148.972H191.147C196.259 148.972 199.535 152.32 199.535 157.324C199.535 162.184 196.223 165.712 191.147 165.712ZM190.535 152.14H184.559V162.544H190.391C193.883 162.544 195.827 160.492 195.827 157.288C195.827 154.012 193.847 152.14 190.535 152.14ZM213.395 157.252V160.348H211.883C208.679 160.348 206.699 162.292 206.699 165.676V175H203.315V157.432H206.483L206.699 160.096C207.419 158.26 209.183 157.036 211.595 157.036C212.207 157.036 212.711 157.108 213.395 157.252ZM215.144 166.18C215.144 160.744 219.032 156.928 224.324 156.928C229.58 156.928 233.468 160.744 233.468 166.18C233.468 171.616 229.58 175.432 224.324 175.432C219.032 175.432 215.144 171.616 215.144 166.18ZM218.564 166.18C218.564 169.852 220.904 172.408 224.324 172.408C227.708 172.408 230.084 169.852 230.084 166.18C230.084 162.508 227.708 159.952 224.324 159.952C220.904 159.952 218.564 162.508 218.564 166.18ZM239.266 153.22C238.006 153.22 237.034 152.212 237.034 150.988C237.034 149.728 238.006 148.756 239.266 148.756C240.454 148.756 241.498 149.728 241.498 150.988C241.498 152.212 240.454 153.22 239.266 153.22ZM233.11 182.992L233.686 179.932C234.37 180.112 234.766 180.184 235.306 180.184C236.926 180.184 237.574 179.248 237.574 177.268V157.396H240.958V177.592C240.958 181.12 239.014 183.316 235.594 183.316C234.694 183.316 234.118 183.28 233.11 182.992ZM253.827 175.432C248.643 175.432 245.079 171.688 245.079 166.216C245.079 160.708 248.571 156.892 253.683 156.892C258.687 156.892 261.963 160.348 261.963 165.568V166.828L248.355 166.864C248.607 170.572 250.551 172.624 253.899 172.624C256.527 172.624 258.255 171.544 258.831 169.528H261.999C261.135 173.308 258.183 175.432 253.827 175.432ZM253.683 159.736C250.731 159.736 248.859 161.5 248.427 164.596H258.579C258.579 161.68 256.671 159.736 253.683 159.736ZM264.95 166.216C264.95 160.708 268.442 156.892 273.59 156.892C278.018 156.892 281.114 159.412 281.726 163.336H278.342C277.766 161.104 275.966 159.916 273.698 159.916C270.494 159.916 268.298 162.364 268.298 166.18C268.298 169.96 270.35 172.408 273.554 172.408C275.966 172.408 277.766 171.148 278.378 169.06H281.762C281.078 172.876 277.802 175.432 273.554 175.432C268.37 175.432 264.95 171.76 264.95 166.216ZM290.661 175H287.277V160.24H283.821V157.396H287.277V151.888H290.661V157.396H294.117V160.24H290.661V175ZM296.074 169.888H299.314C299.314 171.688 300.682 172.768 302.914 172.768C305.29 172.768 306.658 171.796 306.658 170.176C306.658 168.988 306.082 168.268 304.246 167.8L301.15 167.08C298.018 166.324 296.542 164.776 296.542 162.184C296.542 158.944 299.278 156.892 303.166 156.892C307.018 156.892 309.538 159.052 309.61 162.4H306.37C306.298 160.636 305.11 159.52 303.058 159.52C300.934 159.52 299.746 160.456 299.746 162.076C299.746 163.264 300.61 164.056 302.338 164.488L305.434 165.244C308.422 165.964 309.898 167.332 309.898 169.96C309.898 173.308 307.018 175.432 302.842 175.432C298.702 175.432 296.074 173.236 296.074 169.888ZM100.736 224L98.684 221.66C96.668 223.46 93.896 224.468 90.62 224.468C85.04 224.468 81.368 221.588 81.368 217.232C81.368 214.028 83.42 211.472 87.74 209.24C85.508 206.684 84.68 205.1 84.68 203.156C84.68 199.88 87.236 197.54 90.908 197.54C94.472 197.54 96.92 199.736 96.92 202.94C96.92 205.532 95.588 207.548 92.24 209.816L98.468 216.908C99.044 215.504 99.368 213.776 99.368 211.832H102.644C102.644 214.784 101.924 217.376 100.664 219.392L104.696 224H100.736ZM87.884 203.12C87.884 204.488 88.496 205.568 90.512 207.872C92.708 206.54 93.752 204.956 93.752 203.012C93.752 201.32 92.672 200.276 90.872 200.276C89.036 200.276 87.884 201.392 87.884 203.12ZM84.896 216.98C84.896 219.824 87.164 221.552 90.944 221.552C93.356 221.552 95.3 220.832 96.74 219.428L89.432 211.148C86.192 212.948 84.896 214.64 84.896 216.98ZM128.111 224.396C120.695 224.396 115.763 219.068 115.763 211.004C115.763 202.976 120.839 197.54 128.291 197.54C134.16 197.54 138.66 201.032 139.632 206.36H135.851C134.879 202.976 131.963 200.924 128.183 200.924C122.927 200.924 119.471 204.884 119.471 210.968C119.471 217.052 122.927 221.012 128.183 221.012C131.999 221.012 135.023 218.96 135.996 215.756H139.739C138.624 220.94 133.98 224.396 128.111 224.396ZM147.13 224H143.746V197.504H147.13V224ZM154.127 202.22C152.903 202.22 151.895 201.212 151.895 199.988C151.895 198.728 152.903 197.756 154.127 197.756C155.351 197.756 156.359 198.728 156.359 199.988C156.359 201.212 155.351 202.22 154.127 202.22ZM152.471 224V206.396H155.855V224H152.471ZM168.724 224.432C163.54 224.432 159.976 220.688 159.976 215.216C159.976 209.708 163.468 205.892 168.58 205.892C173.584 205.892 176.86 209.348 176.86 214.568V215.828L163.252 215.864C163.504 219.572 165.448 221.624 168.796 221.624C171.424 221.624 173.152 220.544 173.728 218.528H176.896C176.032 222.308 173.08 224.432 168.724 224.432ZM168.58 208.736C165.628 208.736 163.756 210.5 163.324 213.596H173.476C173.476 210.68 171.568 208.736 168.58 208.736ZM184.384 224H181V206.396H184.06L184.42 209.096C185.536 207.08 187.768 205.892 190.252 205.892C194.896 205.892 197.02 208.736 197.02 213.236V224H193.636V213.992C193.636 210.428 191.98 208.988 189.388 208.988C186.22 208.988 184.384 211.256 184.384 214.676V224ZM207.035 224H203.651V209.24H200.195V206.396H203.651V200.888H207.035V206.396H210.491V209.24H207.035V224ZM212.448 218.888H215.688C215.688 220.688 217.056 221.768 219.288 221.768C221.664 221.768 223.032 220.796 223.032 219.176C223.032 217.988 222.456 217.268 220.62 216.8L217.524 216.08C214.392 215.324 212.916 213.776 212.916 211.184C212.916 207.944 215.652 205.892 219.54 205.892C223.392 205.892 225.912 208.052 225.984 211.4H222.744C222.672 209.636 221.484 208.52 219.432 208.52C217.308 208.52 216.12 209.456 216.12 211.076C216.12 212.264 216.984 213.056 218.712 213.488L221.808 214.244C224.796 214.964 226.272 216.332 226.272 218.96C226.272 222.308 223.392 224.432 219.216 224.432C215.076 224.432 212.448 222.236 212.448 218.888Z" fill="white"/>
</svg>
